<svg id="visual" viewBox="0 0 450 900" width="450" height="900" xmlns="http://www.w3.org/2000/svg" xmlns:xlink="http://www.w3.org/1999/xlink" version="1.1"><rect x="0" y="0" width="450" height="900" fill="#1B1B1F"></rect><g transform="translate(2.673497975437897 -46.90721567921261)"><path d="M212.3 -312C286.6 -282.7 366.2 -243.1 406.7 -178.6C447.3 -114.1 448.8 -24.7 433.5 60.3C418.1 145.3 385.9 225.9 334.5 295.7C283.1 365.5 212.6 424.5 131.3 449.4C50.1 474.3 -41.9 465 -129.3 439.7C-216.7 414.3 -299.7 372.9 -358.7 308.7C-417.7 244.4 -452.9 157.3 -447.2 75.5C-441.5 -6.3 -394.9 -82.7 -352.6 -155.1C-310.3 -227.5 -272.2 -295.9 -214.1 -332.6C-156.1 -369.4 -78 -374.6 -4.5 -367.5C69 -360.5 138 -341.4 212.3 -312" fill="none" stroke="#135eff" stroke-width="6"></path></g></svg>