<svg id="visual" viewBox="0 0 450 900" width="450" height="900" xmlns="http://www.w3.org/2000/svg" xmlns:xlink="http://www.w3.org/1999/xlink" version="1.1"><rect width="450" height="900" fill="#1B1B1F"></rect><g><g transform="translate(140 57)"><path d="M139.6 -165.6C179.4 -133 209.2 -87.6 217.1 -38.8C225.1 9.9 211.2 61.9 184.2 104.1C157.2 146.3 117 178.7 70.2 197.8C23.5 216.9 -29.8 222.7 -75.1 206.3C-120.3 189.8 -157.5 151.1 -184.5 105.8C-211.5 60.5 -228.4 8.6 -220.2 -39.1C-212.1 -86.7 -178.9 -130.2 -138 -162.7C-97.2 -195.1 -48.6 -216.6 0.7 -217.4C49.9 -218.2 99.8 -198.3 139.6 -165.6Z" fill="none" stroke="#135eff" stroke-width="7"></path></g><g transform="translate(302 824)"><path d="M130.9 -156.3C165.2 -127.2 185.5 -81.7 191.4 -35.6C197.3 10.5 188.8 57.3 166.9 97.3C144.9 137.4 109.6 170.7 66.6 188.8C23.7 206.9 -26.9 209.8 -69.1 193C-111.3 176.3 -145.3 139.9 -168.3 98.1C-191.3 56.3 -203.4 9.1 -196 -34.9C-188.6 -78.9 -161.7 -119.8 -125.8 -148.6C-89.9 -177.5 -44.9 -194.4 1.7 -196.4C48.3 -198.4 96.6 -185.5 130.9 -156.3Z" stroke="#135eff" fill="none" stroke-width="7"></path></g></g></svg>