<svg id="visual" viewBox="0 0 900 600" width="900" height="600" xmlns="http://www.w3.org/2000/svg" xmlns:xlink="http://www.w3.org/1999/xlink" version="1.1"><rect x="0" y="0" width="900" height="600" fill="#1D1B1E"></rect><g transform="translate(941.6976398308918 11.63770226565515)"><path d="M263.1 -451.4C327.2 -368.2 356 -271.9 376.4 -184.5C396.7 -97 408.7 -18.3 414 71.2C419.3 160.6 417.8 260.7 376.1 347.4C334.4 434 252.4 507.3 154.7 543.7C56.9 580.2 -56.6 579.9 -127.5 519.9C-198.5 460 -226.8 340.5 -294.4 257.7C-362.1 175 -469.1 128.9 -493.7 61.4C-518.4 -6.1 -460.7 -95.1 -404.8 -171.3C-348.8 -247.5 -294.7 -310.9 -227.6 -392.7C-160.4 -474.6 -80.2 -574.8 9.6 -589.8C99.5 -604.8 199 -534.6 263.1 -451.4" fill="none" stroke="#8430C8" stroke-width="6"></path></g></svg>