<svg id="visual" viewBox="0 0 450 900" width="450" height="900" xmlns="http://www.w3.org/2000/svg" xmlns:xlink="http://www.w3.org/1999/xlink" version="1.1"><rect x="0" y="0" width="450" height="900" fill="#1D1B1E"></rect><defs><linearGradient id="grad1_0" x1="0%" y1="0%" x2="100%" y2="100%"><stop offset="30%" stop-color="#4b007e" stop-opacity="1"></stop><stop offset="70%" stop-color="#4b007e" stop-opacity="1"></stop></linearGradient></defs><defs><linearGradient id="grad1_1" x1="0%" y1="0%" x2="100%" y2="100%"><stop offset="30%" stop-color="#4b007e" stop-opacity="1"></stop><stop offset="70%" stop-color="#1d1b1e" stop-opacity="1"></stop></linearGradient></defs><defs><linearGradient id="grad2_0" x1="0%" y1="0%" x2="100%" y2="100%"><stop offset="30%" stop-color="#4b007e" stop-opacity="1"></stop><stop offset="70%" stop-color="#4b007e" stop-opacity="1"></stop></linearGradient></defs><defs><linearGradient id="grad2_1" x1="0%" y1="0%" x2="100%" y2="100%"><stop offset="30%" stop-color="#1d1b1e" stop-opacity="1"></stop><stop offset="70%" stop-color="#4b007e" stop-opacity="1"></stop></linearGradient></defs><g transform="translate(450, 0)"><path d="M0 292.5C-46.9 277.9 -93.7 263.3 -139 240.8C-184.3 218.2 -228 187.7 -253.3 146.3C-278.6 104.8 -285.6 52.4 -292.5 0L0 0Z" fill="#36174c"></path><path d="M0 146.3C-23.4 139 -46.9 131.7 -69.5 120.4C-92.1 109.1 -114 93.9 -126.7 73.1C-139.3 52.4 -142.8 26.2 -146.2 0L0 0Z" fill="#4b007e"></path></g><g transform="translate(0, 900)"><path d="M0 -292.5C46.6 -277.4 93.2 -262.4 138.5 -239.9C183.8 -217.4 227.9 -187.5 253.3 -146.3C278.8 -105 285.6 -52.5 292.5 0L0 0Z" fill="#36174c"></path><path d="M0 -146.2C23.3 -138.7 46.6 -131.2 69.2 -119.9C91.9 -108.7 113.9 -93.7 126.7 -73.1C139.4 -52.5 142.8 -26.3 146.3 0L0 0Z" fill="#4b007e"></path></g></svg>