<svg id="visual" viewBox="0 0 540 960" width="540" height="960" xmlns="http://www.w3.org/2000/svg" xmlns:xlink="http://www.w3.org/1999/xlink" version="1.1"><rect x="0" y="0" width="540" height="960" fill="#1B1B1F"></rect><g transform="translate(265.2742652288125 473.57536771174296)"><path d="M247.7 -396.7C309.1 -346 338.8 -257.1 380.9 -171.9C423.1 -86.6 477.8 -5 473.2 72.2C468.6 149.5 404.7 222.4 341.3 296C277.9 369.6 215 443.9 139.1 459.7C63.2 475.6 -25.7 433.1 -112.2 399.6C-198.6 366.2 -282.6 341.9 -341.2 288C-399.8 234.1 -433 150.6 -451.2 61.4C-469.4 -27.7 -472.6 -122.5 -431.4 -190.5C-390.1 -258.4 -304.6 -299.6 -225.3 -342C-146 -384.5 -73 -428.2 10.1 -443.9C93.2 -459.6 186.3 -447.3 247.7 -396.7" fill="none" stroke="#135eff" stroke-width="10"></path></g></svg>