<svg id="visual" viewBox="0 0 450 900" width="450" height="900" xmlns="http://www.w3.org/2000/svg" xmlns:xlink="http://www.w3.org/1999/xlink" version="1.1"><rect x="0" y="0" width="450" height="900" fill="#1B1B1F"></rect><g transform="translate(478.7623621743636 22.762485532861575)"><path d="M206.3 -339.2C265.6 -283 310.6 -222.7 336.5 -156.5C362.4 -90.3 369.1 -18.1 366.3 57.8C363.4 133.8 351 213.6 309.3 275.8C267.5 337.9 196.4 382.4 121.1 398C45.7 413.5 -33.9 400.1 -118.6 384.2C-203.2 368.3 -292.9 349.9 -341.1 295.1C-389.4 240.3 -396.1 149.1 -408.1 59.3C-420.2 -30.6 -437.5 -119.2 -408.7 -188.5C-380 -257.9 -305.1 -308.2 -229.3 -356.9C-153.5 -405.6 -76.8 -452.8 -1.6 -450.3C73.5 -447.7 147.1 -395.5 206.3 -339.2" fill="none" stroke="#135eff" stroke-width="6"></path></g></svg>