<svg id="visual" viewBox="0 0 450 900" width="450" height="900" xmlns="http://www.w3.org/2000/svg" xmlns:xlink="http://www.w3.org/1999/xlink" version="1.1"><rect width="450" height="900" fill="#1B1B1F"></rect><g><g transform="translate(295 735)"><path d="M140.8 -169.1C177.6 -136.9 199.2 -87.9 205.2 -38.5C211.2 11 201.5 60.9 178.6 105.5C155.7 150.2 119.5 189.6 74.9 205.8C30.3 222 -22.7 215 -69.8 196C-116.9 177 -158 146 -185.4 104.3C-212.8 62.5 -226.5 10.1 -219.9 -40.7C-213.3 -91.6 -186.4 -140.8 -146.3 -172.5C-106.3 -204.2 -53.2 -218.3 -0.6 -217.6C52 -216.9 104 -201.4 140.8 -169.1Z" fill="none" stroke="#135eff" stroke-width="7"></path></g><g transform="translate(47 62)"><path d="M132.5 -157.8C167.8 -128.2 190 -82.8 199.4 -34.4C208.8 14 205.6 65.4 182.8 106.3C160.1 147.1 117.9 177.5 71.5 192.9C25.1 208.2 -25.5 208.6 -70.5 192.7C-115.5 176.7 -155 144.5 -177.2 103.5C-199.5 62.6 -204.4 12.8 -195.7 -34.2C-187 -81.1 -164.7 -125.4 -129.8 -155C-94.9 -184.7 -47.4 -199.7 0.6 -200.4C48.6 -201.1 97.1 -187.3 132.5 -157.8Z" stroke="#135eff" fill="none" stroke-width="7"></path></g></g></svg>