<svg id="visual" viewBox="0 0 450 900" width="450" height="900" xmlns="http://www.w3.org/2000/svg" xmlns:xlink="http://www.w3.org/1999/xlink" version="1.1"><rect x="0" y="0" width="450" height="900" fill="#1B1B1F"></rect><g transform="translate(249.52773637675523 471.957769962376)"><path d="M209.5 -341.7C272 -285.9 323.4 -228.5 349.2 -162.3C375.1 -96.1 375.5 -21 367.1 54.3C358.6 129.7 341.4 205.3 296.7 257.4C252 309.5 179.8 338 103.5 367C27.2 396 -53.2 425.4 -126 411.9C-198.9 398.4 -264.2 341.9 -318.3 277.1C-372.4 212.3 -415.4 139.1 -420.5 64.1C-425.6 -10.9 -392.9 -87.7 -357.5 -162.5C-322.1 -237.3 -284.1 -310 -224 -367C-164 -423.9 -82 -465.1 -4.2 -458.5C73.5 -451.9 147.1 -397.6 209.5 -341.7" fill="none" stroke="#135eff" stroke-width="6"></path></g></svg>