<!DOCTYPE svg PUBLIC "-//W3C//DTD SVG 1.1//EN" "http://www.w3.org/Graphics/SVG/1.1/DTD/svg11.dtd">
<!-- Uploaded to: SVG Repo, www.svgrepo.com, Transformed by: SVG Repo Mixer Tools -->
<svg fill="#ffffff" height="199px" width="199px" version="1.1" id="Layer_1" xmlns="http://www.w3.org/2000/svg" xmlns:xlink="http://www.w3.org/1999/xlink" viewBox="-51.2 -51.2 614.40 614.40" xml:space="preserve" stroke="#ffffff" transform="rotate(0)matrix(1, 0, 0, 1, 0, 0)">
<g id="SVGRepo_bgCarrier" stroke-width="0">
<path transform="translate(-51.2, -51.2), scale(19.2)" d="M16,29.565210437073425C19.11429218772375,29.35313023666592,21.998657889428976,28.001679570237645,24.312639733110498,25.90661826587581C26.549712883579502,23.881189498847213,27.65361247738858,21.095730438488534,28.540416808403158,18.211213832651413C29.576960945162185,14.83963718310599,31.491527942294464,11.12752449908386,29.809443502383644,8.027114076539878C28.119895115193806,4.912946140170719,23.916988784047245,4.60269228820048,20.55341213301225,3.489602983078136C17.323202779582253,2.4206481597941956,14.06663290307516,0.7552655043083815,10.809645786229419,1.7396189986941764C7.4528167145429425,2.754147551687193,4.566395039073225,5.405682814913433,3.3414060133388066,8.691557354238974C2.2130602891184523,11.718198743576869,4.1778930009083695,14.804636986622505,4.754052653511023,17.98296394081277C5.325752611183493,21.13668943507776,4.447050668988579,24.80789450992011,6.679786401686657,27.107398039535326C8.98755860743494,29.484181935161576,12.69481418166821,29.790290303856313,16,29.565210437073425" fill="#0050e3" strokewidth="0"/>
</g>
<g id="SVGRepo_tracerCarrier" stroke-linecap="round" stroke-linejoin="round"/>
<g id="SVGRepo_iconCarrier"> <g> <g> <path d="M155.604,331.743c-0.134-0.712-0.356-1.414-0.634-2.081c-0.278-0.679-0.623-1.325-1.024-1.926 c-0.401-0.612-0.868-1.18-1.38-1.692c-0.512-0.512-1.08-0.979-1.692-1.38c-0.601-0.401-1.247-0.746-1.926-1.024 c-0.668-0.278-1.369-0.501-2.081-0.634c-1.436-0.289-2.905-0.289-4.341,0c-0.712,0.134-1.414,0.356-2.081,0.634 c-0.679,0.278-1.325,0.623-1.926,1.024c-0.612,0.401-1.18,0.868-1.692,1.38c-0.512,0.512-0.979,1.08-1.38,1.692 c-0.401,0.601-0.746,1.247-1.024,1.926c-0.278,0.668-0.49,1.369-0.634,2.081s-0.223,1.447-0.223,2.17s0.078,1.458,0.223,2.17 c0.145,0.712,0.356,1.414,0.634,2.081c0.278,0.679,0.623,1.325,1.024,1.926c0.401,0.612,0.868,1.18,1.38,1.692 c0.512,0.512,1.08,0.979,1.692,1.38c0.601,0.401,1.247,0.746,1.926,1.024c0.668,0.278,1.369,0.501,2.081,0.646 c0.712,0.145,1.447,0.211,2.17,0.211c0.723,0,1.458-0.067,2.17-0.211s1.414-0.367,2.081-0.646 c0.679-0.278,1.325-0.623,1.926-1.024c0.612-0.401,1.18-0.868,1.692-1.38c0.512-0.512,0.979-1.08,1.38-1.692 c0.401-0.601,0.746-1.247,1.024-1.926c0.278-0.668,0.501-1.369,0.634-2.081c0.145-0.712,0.223-1.447,0.223-2.17 S155.748,332.455,155.604,331.743z"/> </g> </g> <g> <g> <path d="M211.478,89.044c-12.275,0-22.261,9.986-22.261,22.261c0,12.275,9.986,22.261,22.261,22.261s22.261-9.986,22.261-22.261 C233.739,99.03,223.753,89.044,211.478,89.044z"/> </g> </g> <g> <g> <path d="M300.522,89.044c-12.275,0-22.261,9.986-22.261,22.261c0,12.275,9.986,22.261,22.261,22.261s22.261-9.986,22.261-22.261 C322.783,99.03,312.796,89.044,300.522,89.044z"/> </g> </g> <g> <g> <path d="M500.87,333.913c-12.275,0-22.261-9.986-22.261-22.261s9.986-22.261,22.261-22.261c6.147,0,11.13-4.983,11.13-11.13 s-4.983-11.13-11.13-11.13c-20.408,0-37.64,13.806-42.878,32.565c-26.181-4.517-46.166-27.374-46.166-54.826v-1.409 c19.181-4.955,33.391-22.406,33.391-43.113c0-24.549-19.972-44.522-44.522-44.522h-22.261v-33.391C378.435,54.924,323.511,0,256,0 c-67.51,0-122.435,54.924-122.435,122.435v33.391h-22.261c-24.549,0-44.522,19.972-44.522,44.522 c0,20.707,14.21,38.157,33.391,43.113v1.409c0,27.452-19.985,50.31-46.166,54.826c-5.238-18.759-22.47-32.565-42.878-32.565 c-6.147,0-11.13,4.983-11.13,11.13s4.983,11.13,11.13,11.13c12.275,0,22.261,9.986,22.261,22.261s-9.986,22.261-22.261,22.261 c-6.147,0-11.13,4.983-11.13,11.13c0,6.147,4.983,11.13,11.13,11.13c20.939,0,38.536-14.533,43.264-34.039 c38.313-4.87,68.04-37.65,68.04-77.265h11.13v55.652c0,6.147,4.983,11.13,11.13,11.13s11.13-4.983,11.13-11.13v-66.783v-55.652 h200.348v55.652v189.217h-55.652h-89.043h-55.652v-55.652c0-6.147-4.983-11.13-11.13-11.13s-11.13,4.983-11.13,11.13v66.783 c0,6.147,4.983,11.13,11.13,11.13h55.652v11.13C200.348,487.034,225.313,512,256,512c30.687,0,55.652-24.966,55.652-55.652v-11.13 h55.652c6.147,0,11.13-4.983,11.13-11.13V244.87h11.13c0,39.615,29.727,72.396,68.04,77.265 c4.728,19.506,22.325,34.039,43.264,34.039c6.147,0,11.13-4.983,11.13-11.13C512,338.896,507.017,333.913,500.87,333.913z M133.565,222.609h-22.261c-12.275,0-22.261-9.986-22.261-22.261s9.986-22.261,22.261-22.261h22.261V222.609z M289.391,456.348 c0,18.412-14.979,33.391-33.391,33.391c-18.412,0-33.391-14.979-33.391-33.391v-11.13h66.783V456.348z M356.174,155.826H155.826 v-33.391c0-55.236,44.938-100.174,100.174-100.174s100.174,44.938,100.174,100.174V155.826z M400.696,222.609h-22.261v-44.522 h22.261c12.275,0,22.261,9.986,22.261,22.261S412.97,222.609,400.696,222.609z"/> </g> </g> <g> <g> <path d="M322.783,200.348h-44.522c-6.147,0-11.13,4.983-11.13,11.13s4.983,11.13,11.13,11.13h44.522 c6.147,0,11.13-4.983,11.13-11.13S328.93,200.348,322.783,200.348z"/> </g> </g> </g>
</svg>